<svg width="173" height="120" viewBox="0 0 173 120" fill="none" xmlns="http://www.w3.org/2000/svg">
<path d="M84.7755 16.291H87.4951C100.723 17.0365 110.155 22.0568 117.148 29.0924C124.14 36.1281 129.309 45.4075 130 58.6845V61.3149C129.328 74.8042 124.068 83.7071 117.148 90.9509C109.878 97.8315 100.941 103.045 87.4512 103.708H84.7755C71.5489 102.961 62.1154 97.9428 55.1229 90.9068C48.1304 83.8711 42.9614 74.5919 42.2706 61.3149V58.6845C42.3051 58.6749 42.3219 58.6479 42.3145 58.5968C42.9759 45.3705 48.1732 35.9946 55.1231 29.0486C62.105 22.0702 71.6346 17.0141 84.7755 16.291ZM76.178 22.5602C73.5717 23.2577 71.2344 24.1435 69.1159 25.1905C62.6675 28.3773 57.3498 32.9367 53.6316 38.7809C50.0025 44.4854 46.8602 51.8237 47.3152 61.4463C47.6022 67.5128 48.9872 72.6158 51.1751 76.9657C55.4959 85.5546 62.074 91.8831 71.1777 95.7295C75.6795 97.6315 81.2576 98.9657 87.5392 98.6666C93.5645 98.3799 98.7855 97.0262 103.111 94.8526C111.589 90.5923 118.27 84.019 121.973 74.9492C123.846 70.3612 125.262 65.0611 124.956 58.6405C124.377 46.4778 119.426 38.2309 112.894 31.9419C109.661 28.8301 105.769 26.1831 101.182 24.2699C96.7311 22.4137 90.9374 21.0373 84.7322 21.3326C81.6817 21.4778 78.804 21.8574 76.178 22.5602Z" fill="#C6C6C6"/>
<path d="M82.0999 48.6445C83.4897 49.5643 84.9112 50.4526 86.2233 51.4503C83.2593 53.3103 80.3536 55.2288 77.4065 57.1057C77.854 57.4476 78.3628 57.7281 78.8101 58.0701C81.7818 56.1885 84.7544 54.308 87.7148 52.4147C89.0425 53.236 90.3496 54.0778 91.575 55.0014C88.6086 56.8739 85.7417 58.8455 82.802 60.7443C83.2376 61.0983 83.7715 61.3537 84.2493 61.665C87.2877 59.8063 90.2505 57.872 93.2415 55.966V49.7405H99.8213V62.1474C101.678 62.2495 103.725 62.162 105.656 62.1909V68.0219H93.2415V62.1032C89.5942 64.3179 85.8565 66.8223 82.1877 69.1615C78.367 66.682 74.6847 64.0634 70.8706 61.5773C69.7657 65.0776 67.1414 67.7107 62.7993 68.0219C60.0912 68.2154 57.014 67.8773 53.8948 68.0219V49.7405C57.7944 49.9987 62.0764 49.2194 65.168 50.1789C67.9016 51.0274 69.8396 53.2073 70.7388 55.922C74.5557 53.526 78.3114 51.0692 82.0999 48.6445ZM60.1673 55.6152V62.1911C61.7346 62.1988 62.9267 62.2898 63.8518 61.5775C65.2281 60.518 65.5054 57.8914 64.2904 56.4919C63.4796 55.5581 62.1106 55.3621 60.2109 55.4836C60.1603 55.491 60.1635 55.553 60.1673 55.6152ZM107.366 49.7405H113.946V62.1911H119.736V68.0221H107.322V49.8721C107.318 49.8099 107.315 49.7479 107.366 49.7405Z" fill="#C6C6C6"/>
</svg>
