<svg width="173" height="120" viewBox="0 0 173 120" fill="none" xmlns="http://www.w3.org/2000/svg">
<path d="M152 83.5067V80.3183H148.04V75.3613L147.907 75.4023L144.188 76.5401L144.115 76.5624V80.3183H138.245V78.2262C138.245 77.2519 138.463 76.5063 138.892 76.0091C139.319 75.5178 139.929 75.2681 140.706 75.2681C141.265 75.2681 141.844 75.3999 142.427 75.6597L142.573 75.7248V72.3668L142.504 72.3416C141.961 72.1463 141.221 72.0479 140.305 72.0479C139.15 72.0479 138.101 72.2991 137.186 72.7972C136.27 73.2959 135.55 74.008 135.045 74.9134C134.542 75.8177 134.287 76.8621 134.287 78.0179V80.3183H131.53V83.5067H134.287V96.9391H138.245V83.5067H144.115V92.0429C144.115 95.5584 145.773 97.3401 149.043 97.3401C149.581 97.3401 150.146 97.277 150.724 97.1535C151.312 97.027 151.712 96.9005 151.948 96.7655L152 96.7348V93.5167L151.839 93.6233C151.624 93.7667 151.357 93.8835 151.043 93.9703C150.728 94.0589 150.465 94.1034 150.261 94.1034C149.495 94.1034 148.928 93.8969 148.577 93.4896C148.221 93.0785 148.04 92.3594 148.04 91.3538V83.5067H152ZM122.691 94.1037C121.255 94.1037 120.122 93.6273 119.324 92.689C118.521 91.7459 118.114 90.4014 118.114 88.6931C118.114 86.9307 118.521 85.5514 119.324 84.5916C120.123 83.6381 121.245 83.1543 122.659 83.1543C124.032 83.1543 125.124 83.6164 125.906 84.5287C126.693 85.4455 127.092 86.8139 127.092 88.5969C127.092 90.4018 126.717 91.7882 125.977 92.7155C125.242 93.6361 124.137 94.1037 122.691 94.1037ZM122.868 79.9178C120.127 79.9178 117.95 80.7209 116.398 82.3048C114.847 83.8889 114.06 86.081 114.06 88.8209C114.06 91.4232 114.828 93.5164 116.342 95.0413C117.857 96.567 119.917 97.3397 122.467 97.3397C125.124 97.3397 127.257 96.5255 128.809 94.9197C130.36 93.3154 131.146 91.1441 131.146 88.4682C131.146 85.8252 130.408 83.7164 128.953 82.2015C127.497 80.686 125.449 79.9178 122.868 79.9178ZM107.679 79.9177C105.815 79.9177 104.273 80.3946 103.094 81.3348C101.909 82.2806 101.308 83.5212 101.308 85.0223C101.308 85.8025 101.438 86.4957 101.693 87.0835C101.95 87.6734 102.348 88.1925 102.876 88.6284C103.4 89.0607 104.209 89.5136 105.282 89.9742C106.183 90.3452 106.855 90.6591 107.283 90.9064C107.7 91.1486 107.996 91.3924 108.164 91.6296C108.326 91.8618 108.409 92.1794 108.409 92.5719C108.409 93.6884 107.573 94.2316 105.852 94.2316C105.214 94.2316 104.486 94.0986 103.688 93.8357C102.89 93.5733 102.144 93.196 101.472 92.7122L101.308 92.5944V96.4049L101.368 96.4329C101.929 96.6914 102.634 96.9093 103.467 97.081C104.297 97.2526 105.052 97.3401 105.708 97.3401C107.731 97.3401 109.36 96.8609 110.548 95.9151C111.745 94.9628 112.351 93.693 112.351 92.1398C112.351 91.0195 112.025 90.0586 111.381 89.2839C110.742 88.5152 109.634 87.8098 108.087 87.1861C106.854 86.6915 106.065 86.2809 105.739 85.9658C105.425 85.6613 105.266 85.2308 105.266 84.6855C105.266 84.2021 105.463 83.815 105.867 83.5013C106.274 83.186 106.84 83.0258 107.551 83.0258C108.211 83.0258 108.885 83.1299 109.556 83.334C110.227 83.5381 110.816 83.8115 111.307 84.146L111.469 84.2565V80.6419L111.407 80.6151C110.953 80.4207 110.355 80.2543 109.629 80.1192C108.905 79.9855 108.249 79.9177 107.679 79.9177ZM90.9899 94.1037C89.5537 94.1037 88.4207 93.6273 87.6227 92.689C86.8195 91.7459 86.4132 90.4018 86.4132 88.6931C86.4132 86.9307 86.8199 85.5514 87.6236 84.5916C88.4216 83.6381 89.5432 83.1543 90.9581 83.1543C92.33 83.1543 93.4224 83.6164 94.2051 84.5287C94.9917 85.4455 95.3907 86.8139 95.3907 88.5969C95.3907 90.4018 95.0151 91.7882 94.275 92.7155C93.5402 93.6361 92.4355 94.1037 90.9899 94.1037ZM91.1666 79.9178C88.4251 79.9178 86.2482 80.7209 84.6969 82.3048C83.1458 83.8889 82.3588 86.081 82.3588 88.8209C82.3588 91.4243 83.127 93.5164 84.6412 95.0413C86.1554 96.567 88.216 97.3397 90.7656 97.3397C93.4218 97.3397 95.556 96.5255 97.1075 94.9197C98.6583 93.3154 99.4447 91.1441 99.4447 88.4682C99.4447 85.8252 98.707 83.7164 97.2515 82.2015C95.7952 80.686 93.7478 79.9178 91.1666 79.9178ZM76.3508 83.1965V80.3183H72.441V96.9387H76.3508V88.4368C76.3508 86.9909 76.6785 85.8034 77.3252 84.9063C77.9638 84.02 78.8149 83.5708 79.8538 83.5708C80.2059 83.5708 80.6012 83.6289 81.0293 83.7437C81.4531 83.8579 81.76 83.9818 81.9411 84.1123L82.1053 84.2313V80.2898L82.0419 80.2626C81.6778 80.1078 81.1628 80.0298 80.5111 80.0298C79.5287 80.0298 78.6494 80.3455 77.8963 80.967C77.2353 81.5133 76.7574 82.2624 76.3922 83.1965H76.3508ZM65.4396 79.9177C63.6461 79.9177 62.0462 80.3025 60.6852 81.0606C59.3216 81.8204 58.2671 82.9054 57.5496 84.285C56.8353 85.6613 56.4727 87.2689 56.4727 89.0616C56.4727 90.6319 56.8243 92.0731 57.5193 93.3431C58.2147 94.6153 59.199 95.6106 60.4449 96.301C61.689 96.9904 63.127 97.3401 64.719 97.3401C66.577 97.3401 68.1633 96.9685 69.4353 96.2361L69.4866 96.2065V92.6247L69.3224 92.7446C68.7462 93.1642 68.1024 93.4992 67.4096 93.7406C66.7186 93.9817 66.0885 94.1036 65.5363 94.1036C64.0021 94.1036 62.7707 93.6235 61.8767 92.6773C60.9807 91.7296 60.5265 90.3991 60.5265 88.7246C60.5265 87.0396 61.0002 85.6749 61.9339 84.6678C62.8645 83.6637 64.0984 83.1544 65.6007 83.1544C66.8859 83.1544 68.1381 83.5896 69.3228 84.449L69.4866 84.568V80.794L69.4337 80.7642C68.9878 80.5147 68.3799 80.3086 67.6249 80.1523C66.8734 79.9964 66.1383 79.9177 65.4396 79.9177ZM53.78 80.3183H49.8703V96.9387H53.78V80.3183ZM51.865 73.2379C51.2216 73.2379 50.6604 73.4569 50.1993 73.891C49.7363 74.3263 49.5013 74.8744 49.5013 75.5211C49.5013 76.1578 49.7335 76.6958 50.1919 77.1195C50.6474 77.542 51.2104 77.7562 51.865 77.7562C52.5194 77.7562 53.0846 77.542 53.5456 77.1202C54.0098 76.6958 54.245 76.1578 54.245 75.5211C54.245 74.897 54.0161 74.3544 53.5647 73.9085C53.114 73.4635 52.542 73.2379 51.865 73.2379ZM42.1102 79.0921V96.9386H46.1002V73.7468H40.578L33.5588 90.973L26.7471 73.7468H21V96.9386H24.7495V79.0903H24.8784L32.0713 96.9386H34.9009L41.9815 79.0921H42.1102Z" fill="#C6C6C6"/>
<path d="M82.9579 40.1449H64.5659V21.7529H82.9579V40.1449Z" fill="#C6C6C6"/>
<path d="M103.265 40.1449H84.8728V21.7529H103.265V40.1449Z" fill="#C6C6C6"/>
<path d="M82.9575 60.4594H64.5659V42.0674H82.9575V60.4594Z" fill="#C6C6C6"/>
<path d="M103.265 60.4594H84.8728V42.0674H103.265V60.4594Z" fill="#C6C6C6"/>
</svg>
