<svg width="28" height="22" viewBox="0 0 28 22" fill="none" xmlns="http://www.w3.org/2000/svg">
<path d="M26.6449 15.9201V18.9201C26.6463 19.1986 26.5746 19.4743 26.4344 19.7294C26.2942 19.9846 26.0886 20.2137 25.8308 20.402C25.5729 20.5902 25.2684 20.7336 24.9369 20.8228C24.6054 20.912 24.2541 20.9452 23.9056 20.9201C20.039 20.5857 16.3248 19.5342 13.0615 17.8501C10.0254 16.3148 7.45138 14.2663 5.52213 11.8501C3.39852 9.2413 2.07695 6.27109 1.6645 3.1801C1.6331 2.90356 1.67439 2.62486 1.78575 2.36172C1.89712 2.09859 2.07611 1.85679 2.31133 1.65172C2.54655 1.44665 2.83285 1.28281 3.152 1.17062C3.47115 1.05843 3.81615 1.00036 4.16505 1.0001H7.93473C8.54455 0.995321 9.13574 1.16718 9.59812 1.48363C10.0605 1.80008 10.3625 2.23954 10.4478 2.7201C10.607 3.68016 10.902 4.62282 11.3274 5.5301C11.4965 5.88802 11.5331 6.27701 11.4329 6.65098C11.3327 7.02494 11.0998 7.36821 10.762 7.6401L9.16616 8.9101C10.9549 11.4136 13.5597 13.4865 16.7055 14.9101L18.3013 13.6401C18.643 13.3712 19.0743 13.1859 19.5442 13.1062C20.0141 13.0264 20.5029 13.0556 20.9527 13.1901C22.0927 13.5286 23.2772 13.7635 24.4836 13.8901C25.094 13.9586 25.6515 14.2033 26.05 14.5776C26.4485 14.9519 26.6602 15.4297 26.6449 15.9201Z" stroke="#6379F4" stroke-width="2" stroke-linecap="round" stroke-linejoin="round"/>
</svg>
